<?xml version="1.0" standalone="no"?>
<!DOCTYPE svg PUBLIC "-//W3C//DTD SVG 20010904//EN"
 "http://www.w3.org/TR/2001/REC-SVG-20010904/DTD/svg10.dtd">
<svg version="1.0" xmlns="http://www.w3.org/2000/svg"
 width="510.000000pt" height="511.000000pt" viewBox="0 0 510.000000 511.000000"
 preserveAspectRatio="xMidYMid meet">

<g transform="translate(0.000000,511.000000) scale(0.100000,-0.100000)"
fill="#000000" stroke="none">
<path d="M2475 4781 c-22 -10 -54 -34 -72 -52 -54 -57 -52 -51 -163 -574 -28
-132 -58 -270 -66 -307 l-15 -67 -382 287 c-210 158 -402 297 -426 309 -85 44
-199 25 -267 -43 -54 -54 -78 -116 -72 -191 5 -65 1 -55 273 -608 242 -492
238 -485 231 -492 -6 -7 -41 -11 -556 -63 -361 -37 -380 -43 -447 -133 -12
-16 -30 -54 -39 -83 -16 -51 -16 -57 0 -108 20 -61 51 -108 95 -140 32 -24 55
-33 521 -201 162 -58 303 -109 312 -113 19 -7 12 -15 -360 -409 -68 -72 -134
-146 -148 -164 -85 -116 -42 -283 89 -351 86 -43 112 -39 462 72 568 181 636
202 639 199 2 -2 20 -152 40 -334 65 -583 83 -729 95 -758 35 -88 124 -147
223 -147 112 0 186 55 236 174 31 74 260 649 315 793 18 46 37 83 42 83 8 0
342 -138 825 -342 169 -71 201 -81 256 -75 159 16 261 170 209 316 -8 23 -139
231 -291 462 -152 231 -275 421 -273 423 2 2 72 26 154 54 194 65 594 204 665
231 106 40 164 122 164 231 0 95 -51 178 -132 214 -21 9 -213 52 -426 94
l-388 77 117 165 c65 91 162 228 217 305 208 294 241 341 255 375 19 44 19
136 1 180 -48 115 -185 178 -299 138 -31 -10 -140 -69 -419 -223 -52 -29 -126
-69 -165 -90 -209 -113 -368 -201 -422 -232 -48 -28 -40 -42 -78 127 -14 63
-35 151 -45 195 -11 44 -37 159 -60 255 -79 339 -91 385 -107 422 -19 46 -77
103 -125 123 -51 21 -143 19 -193 -4z m143 -401 c22 -91 79 -334 127 -540 125
-538 130 -556 146 -552 13 3 118 60 919 500 190 104 346 188 348 187 1 -1 -26
-42 -60 -91 -35 -49 -138 -194 -230 -324 -92 -129 -183 -257 -203 -285 -19
-27 -89 -126 -155 -220 -65 -93 -118 -171 -116 -172 3 -4 485 -100 866 -174
118 -23 222 -44 230 -46 9 -3 -6 -13 -35 -23 -61 -22 -458 -160 -575 -200 -47
-16 -150 -52 -230 -80 -80 -29 -171 -61 -202 -72 -53 -18 -57 -21 -47 -40 6
-11 75 -118 153 -237 79 -119 190 -288 248 -376 57 -88 148 -225 200 -305 53
-80 95 -146 94 -147 -2 -2 -45 16 -97 38 -137 59 -224 96 -509 214 -244 102
-359 150 -517 218 -40 17 -75 29 -77 26 -2 -2 -64 -157 -138 -344 -265 -668
-312 -785 -314 -782 -1 1 -9 65 -18 142 -93 841 -132 1164 -138 1171 -4 3
-267 -79 -678 -210 -58 -19 -179 -57 -270 -85 -91 -29 -182 -58 -203 -66 -21
-8 -37 -10 -35 -5 3 8 172 189 363 390 50 52 127 133 171 180 44 47 110 117
147 155 l66 71 -87 32 c-350 128 -928 337 -980 354 -34 12 -61 23 -59 25 6 5
145 22 407 48 532 54 760 79 760 86 0 3 -71 152 -159 330 -87 178 -192 394
-234 479 -41 85 -113 234 -160 330 -47 96 -85 175 -84 176 1 2 108 -77 237
-174 129 -98 363 -274 520 -391 157 -118 290 -218 296 -222 7 -6 24 54 52 184
87 405 145 674 153 717 5 25 20 95 34 156 14 61 25 115 25 119 0 26 13 -19 48
-165z"/>
<path d="M2586 3473 c-10 -87 -28 -246 -42 -353 -13 -107 -24 -207 -24 -222 0
-15 -5 -30 -10 -33 -6 -4 -43 18 -83 47 -39 30 -91 68 -113 84 -23 16 -84 59
-135 96 -196 141 -233 167 -236 164 -2 -2 20 -41 48 -87 140 -227 289 -478
289 -486 0 -5 -64 -14 -142 -21 -208 -18 -459 -45 -455 -49 2 -1 100 -32 218
-67 118 -35 234 -71 259 -79 25 -8 64 -20 88 -26 23 -6 42 -15 41 -19 0 -4
-96 -99 -213 -212 -117 -113 -211 -206 -210 -208 1 -3 240 65 414 118 52 16
120 35 150 43 30 8 62 18 71 22 15 6 17 -11 23 -162 4 -92 9 -202 11 -243 2
-41 7 -160 11 -265 l7 -190 119 361 119 362 202 -122 c111 -67 271 -163 355
-214 83 -51 154 -92 157 -92 3 0 -12 26 -33 58 -22 31 -112 172 -202 312 -89
140 -180 281 -201 313 -39 57 -39 57 -17 66 86 32 478 178 548 204 47 17 89
34 93 37 4 4 -39 15 -95 24 -57 10 -202 36 -323 58 -121 21 -228 40 -237 41
-10 1 -18 5 -18 9 0 7 259 321 415 503 28 33 69 82 90 108 l39 49 -130 -68
c-71 -37 -199 -104 -284 -149 -85 -44 -198 -103 -250 -130 -52 -26 -104 -54
-115 -61 -32 -22 -42 -16 -49 29 -12 77 -126 607 -130 607 -1 0 -10 -71 -20
-157z"/>
</g>
</svg>
