<?xml version="1.0" standalone="no"?>
<!DOCTYPE svg PUBLIC "-//W3C//DTD SVG 20010904//EN"
 "http://www.w3.org/TR/2001/REC-SVG-20010904/DTD/svg10.dtd">
<svg version="1.0" xmlns="http://www.w3.org/2000/svg"
 width="880.000000pt" height="1006.000000pt" viewBox="0 0 880.000000 1006.000000"
 preserveAspectRatio="xMidYMid meet">

<g transform="translate(0.000000,1006.000000) scale(0.100000,-0.100000)"
fill="#000000" stroke="none">
<path d="M4258 9634 c-94 -30 -160 -86 -208 -176 l-34 -63 -9 -270 c-5 -148
-12 -273 -16 -277 -3 -3 -71 -16 -151 -28 -583 -87 -1102 -278 -1583 -584
-913 -580 -1560 -1516 -1777 -2571 -46 -224 -61 -387 -67 -715 -7 -445 19
-703 107 -1060 307 -1234 1212 -2262 2405 -2733 582 -229 1133 -311 1810 -267
440 29 943 166 1385 377 425 203 742 426 1066 748 202 201 312 328 459 530
423 581 671 1257 736 2004 17 195 7 624 -20 827 -81 622 -306 1218 -654 1727
-142 209 -271 362 -549 653 l-49 50 96 113 c53 62 103 115 111 118 8 3 60 -32
126 -84 62 -49 129 -99 149 -111 l36 -22 44 34 c46 34 154 159 177 202 7 14
10 33 7 44 -9 29 -130 139 -401 364 -310 258 -450 366 -478 366 -29 0 -165
-144 -201 -213 l-29 -54 23 -32 c12 -17 66 -69 119 -115 137 -117 130 -103 76
-175 -60 -80 -143 -171 -156 -171 -6 0 -56 30 -112 67 -580 382 -1118 593
-1741 684 -82 12 -152 24 -155 26 -3 3 -8 123 -11 267 -6 255 -7 265 -32 319
-85 185 -291 268 -499 201z m557 -1200 c1466 -172 2687 -1231 3059 -2654 80
-304 111 -561 111 -915 0 -280 -7 -366 -51 -630 -95 -575 -351 -1138 -738
-1625 -122 -153 -383 -415 -531 -534 -145 -116 -369 -265 -530 -354 -423 -232
-949 -395 -1401 -433 -190 -16 -683 -6 -824 16 -1034 163 -1871 674 -2457
1500 -323 454 -534 993 -624 1590 -22 143 -19 804 4 960 66 440 206 862 413
1240 87 159 252 406 355 530 119 143 436 458 558 554 564 446 1310 734 1996
771 194 11 495 3 660 -16z"/>
<path d="M4254 7663 l-51 -4 -6 -211 c-4 -116 -7 -666 -7 -1221 l0 -1010 -64
-66 c-75 -79 -101 -126 -116 -215 -15 -84 -2 -167 40 -252 37 -76 101 -136
188 -177 60 -29 76 -32 157 -31 145 1 251 56 325 166 55 83 73 151 68 252 -6
109 -37 176 -122 262 l-66 67 0 1214 c0 962 -3 1214 -12 1218 -20 6 -278 12
-334 8z"/>
</g>
</svg>
